<svg xmlns="http://www.w3.org/2000/svg" viewBox="0 0 32 32">
  <defs>
    <linearGradient id="bg" x1="0%" y1="0%" x2="100%" y2="100%">
      <stop offset="0%" style="stop-color:#F5E6F0"/>
      <stop offset="100%" style="stop-color:#E8D5E8"/>
    </linearGradient>
    <linearGradient id="p1" x1="0%" y1="100%" x2="0%" y2="0%">
      <stop offset="0%" style="stop-color:#D4A0C8"/>
      <stop offset="100%" style="stop-color:#E8C4D8"/>
    </linearGradient>
    <linearGradient id="p2" x1="0%" y1="100%" x2="0%" y2="0%">
      <stop offset="0%" style="stop-color:#C898C0"/>
      <stop offset="100%" style="stop-color:#DDB5D0"/>
    </linearGradient>
    <linearGradient id="p3" x1="0%" y1="100%" x2="0%" y2="0%">
      <stop offset="0%" style="stop-color:#BC8EB8"/>
      <stop offset="100%" style="stop-color:#D0A8C8"/>
    </linearGradient>
    <radialGradient id="glow" cx="50%" cy="50%" r="50%">
      <stop offset="0%" style="stop-color:#F8E0F0;stop-opacity:0.9"/>
      <stop offset="100%" style="stop-color:#E8B8D8;stop-opacity:0.3"/>
    </radialGradient>
  </defs>
  <rect width="32" height="32" rx="7" fill="url(#bg)"/>
  <ellipse cx="16" cy="22" rx="9" ry="1.2" fill="#D8C8D0" opacity="0.4"/>
  <ellipse cx="10" cy="18.5" rx="2.5" ry="5.5" fill="url(#p2)" transform="rotate(-22 10 18.5)" opacity="0.6"/>
  <ellipse cx="22" cy="18.5" rx="2.5" ry="5.5" fill="url(#p2)" transform="rotate(22 22 18.5)" opacity="0.6"/>
  <ellipse cx="13" cy="17.5" rx="2.5" ry="6.5" fill="url(#p1)" transform="rotate(-10 13 17.5)" opacity="0.8"/>
  <ellipse cx="19" cy="17.5" rx="2.5" ry="6.5" fill="url(#p1)" transform="rotate(10 19 17.5)" opacity="0.8"/>
  <ellipse cx="16" cy="16.5" rx="2.2" ry="7.5" fill="url(#p3)"/>
  <ellipse cx="14.8" cy="18" rx="1.8" ry="5" fill="url(#p1)" transform="rotate(-4 14.8 18)" opacity="0.85"/>
  <ellipse cx="17.2" cy="18" rx="1.8" ry="5" fill="url(#p1)" transform="rotate(4 17.2 18)" opacity="0.85"/>
  <circle cx="16" cy="19.5" r="2.5" fill="url(#glow)"/>
  <circle cx="16" cy="19" r="0.8" fill="white" opacity="0.85"/>
  <circle cx="16.25" cy="18.75" r="0.25" fill="white" opacity="0.5"/>
</svg>
